<svg width="80" height="48" fill="none" xmlns="http://www.w3.org/2000/svg"><path d="M6.727 39V18.633H.914V15h5.813v-1.219c0-3.453.39-6.008 1.171-7.664.782-1.656 1.985-3.015 3.61-4.078C13.148.977 15.313.445 18 .445c2.031 0 4.094.211 6.188.633v4.149c-2.266-.75-4.274-1.125-6.024-1.125-1.39 0-2.617.257-3.68.773-1.062.516-1.898 1.36-2.507 2.531-.594 1.157-.891 3.125-.891 5.907V15h10.383v3.633H11.086V39h-4.36Zm44.226 8.719c-4.328-.266-7.976-1.492-10.945-3.68-2.969-2.172-5.344-5.11-7.125-8.812-1.766-3.704-2.649-7.414-2.649-11.133 0-3.719.883-7.43 2.649-11.133 1.781-3.703 4.156-6.64 7.125-8.813C42.977 1.961 46.625.727 50.953.445v3.657c-3.266.296-6.078 1.398-8.437 3.304-2.344 1.89-4.188 4.305-5.532 7.242-1.343 2.938-2.015 6.086-2.015 9.446 0 3.36.672 6.508 2.015 9.445 1.344 2.938 3.188 5.352 5.532 7.242 2.359 1.89 5.172 2.992 8.437 3.305v3.633ZM58.336.445c4.328.282 7.977 1.516 10.945 3.703 2.969 2.172 5.336 5.11 7.102 8.813 1.781 3.703 2.672 7.414 2.672 11.133 0 3.718-.89 7.43-2.672 11.133-1.766 3.703-4.133 6.64-7.102 8.812-2.969 2.188-6.617 3.414-10.945 3.68v-3.633c3.266-.313 6.07-1.414 8.414-3.305 2.36-1.89 4.21-4.304 5.555-7.242 1.36-2.937 2.039-6.086 2.039-9.445 0-3.36-.68-6.508-2.04-9.446-1.343-2.937-3.195-5.351-5.554-7.242-2.344-1.906-5.148-3.008-8.414-3.304V.445Z" fill="#000"/></svg>