<svg xmlns="http://www.w3.org/2000/svg" width="512" height="512" fill="none"><g clip-path="url(#a)"><path stroke="#0C0C0C" stroke-width="10" d="M36.55 268.167H256M231.43 198.931c-20.168 24.465-50.946 40.099-85.43 40.099-34.484 0-65.262-15.634-85.43-40.099M61.705 338.463c20.178-23.686 50.452-38.744 84.295-38.744s64.116 15.058 84.295 38.744M146.6 164.793V381"/><ellipse cx="146" cy="269.374" stroke="#0C0C0C" stroke-width="10" rx="110" ry="108.374"/><ellipse cx="146" cy="269.374" stroke="#0C0C0C" stroke-width="10" rx="55" ry="108.374"/><path fill="#000" d="M302.86 271c0 14.96 1.687 28.013 5.06 39.16 3.373 11 8.36 21.047 14.96 30.14 6.747 8.947 15.693 18.407 26.84 28.38l-9.46 10.12c-12.907-10.413-23.467-20.68-31.68-30.8-8.067-10.12-14.3-21.413-18.7-33.88-4.253-12.467-6.38-26.84-6.38-43.12 0-16.28 2.127-30.653 6.38-43.12 4.4-12.467 10.633-23.76 18.7-33.88 8.213-10.12 18.773-20.387 31.68-30.8l9.46 10.12c-11.293 9.973-20.313 19.433-27.06 28.38-6.6 8.947-11.587 18.993-14.96 30.14-3.227 11-4.84 24.053-4.84 39.16ZM409.14 271c0-15.107-1.687-28.16-5.06-39.16-3.227-11.147-8.213-21.193-14.96-30.14-6.6-8.947-15.547-18.407-26.84-28.38l9.46-10.12c12.907 10.413 23.393 20.68 31.46 30.8 8.213 10.12 14.447 21.413 18.7 33.88 4.4 12.467 6.6 26.84 6.6 43.12 0 16.28-2.2 30.653-6.6 43.12-4.253 12.467-10.487 23.76-18.7 33.88-8.067 10.12-18.553 20.387-31.46 30.8l-9.46-10.12c11.147-9.973 20.02-19.433 26.62-28.38 6.747-9.093 11.807-19.14 15.18-30.14 3.373-11.147 5.06-24.2 5.06-39.16ZM461.78 210.58c5.133 0 9.387 1.76 12.76 5.28 3.373 3.373 5.06 7.48 5.06 12.32 0 4.987-1.687 9.24-5.06 12.76-3.373 3.52-7.627 5.28-12.76 5.28-4.987 0-9.167-1.76-12.54-5.28-3.373-3.52-5.06-7.773-5.06-12.76 0-4.84 1.687-8.947 5.06-12.32 3.373-3.52 7.553-5.28 12.54-5.28Zm0 75.9c4.987 0 9.167 1.76 12.54 5.28 3.52 3.373 5.28 7.553 5.28 12.54 0 5.28-1.393 11.073-4.18 17.38l-18.04 40.92h-16.72l10.56-43.56c-2.2-1.613-3.96-3.74-5.28-6.38a20.363 20.363 0 0 1-1.76-8.36c0-4.987 1.687-9.167 5.06-12.54 3.373-3.52 7.553-5.28 12.54-5.28Z"/></g><defs><clipPath id="a"><path fill="#fff" d="M0 0h512v512H0z"/></clipPath></defs></svg>