<svg width="512" height="512" viewBox="0 0 512 512" fill="none" xmlns="http://www.w3.org/2000/svg">
<g clip-path="url(#clip0_1_14)">
<line x1="31.85" y1="249.35" x2="371" y2="249.35" stroke="#0C0C0C" stroke-width="20"/>
<path d="M333.028 144.621C301.859 182.431 254.293 206.591 201 206.591C147.707 206.591 100.141 182.431 68.9718 144.621" stroke="#0C0C0C" stroke-width="20"/>
<path d="M70.7262 360.261C101.911 323.655 148.697 300.384 201 300.384C253.303 300.384 300.089 323.655 331.274 360.261" stroke="#0C0C0C" stroke-width="20"/>
<line x1="204.2" y1="91.8621" x2="204.2" y2="426" stroke="#0C0C0C" stroke-width="20"/>
<ellipse cx="201" cy="253.488" rx="170" ry="167.488" stroke="#0C0C0C" stroke-width="20"/>
<ellipse cx="201" cy="253.488" rx="85" ry="167.488" stroke="#0C0C0C" stroke-width="20"/>
<path d="M452.6 136.6C461.933 136.6 469.667 139.8 475.8 146.2C481.933 152.333 485 159.8 485 168.6C485 177.667 481.933 185.4 475.8 191.8C469.667 198.2 461.933 201.4 452.6 201.4C443.533 201.4 435.933 198.2 429.8 191.8C423.667 185.4 420.6 177.667 420.6 168.6C420.6 159.8 423.667 152.333 429.8 146.2C435.933 139.8 443.533 136.6 452.6 136.6ZM452.6 274.6C461.667 274.6 469.267 277.8 475.4 284.2C481.8 290.333 485 297.933 485 307C485 316.6 482.467 327.133 477.4 338.6L444.6 413H414.2L433.4 333.8C429.4 330.867 426.2 327 423.8 322.2C421.667 317.4 420.6 312.333 420.6 307C420.6 297.933 423.667 290.333 429.8 284.2C435.933 277.8 443.533 274.6 452.6 274.6Z" fill="black"/>
</g>
<defs>
<clipPath id="clip0_1_14">
<rect width="512" height="512" fill="white"/>
</clipPath>
</defs>
</svg>
